<?xml version="1.0" encoding="utf-8"?>
<svg viewBox="31.835 32.156 469.646 439.667" xmlns="http://www.w3.org/2000/svg">
  <path d="M 178.589 36.061 C 175.603 36.118 172.659 36.661 169.747 37.538 C 168.643 37.795 167.56 38.115 166.497 38.51 C 166.523 38.55 166.547 38.592 166.572 38.63 C 163.102 40.01 159.755 41.965 156.88 44.98 C 153.38 48.653 150.803 54.88 152.187 60.978 L 152.281 61.391 L 152.326 61.535 C 164.189 51.452 179.996 46.772 194.77 46.895 C 195.07 46.897 195.366 46.919 195.665 46.925 L 195.597 46.057 L 195.005 44.683 C 192.301 38.409 186.328 36.635 181.895 36.193 C 180.788 36.083 179.685 36.039 178.587 36.06 L 178.589 36.061 Z M 178.342 67.894 C 171.642 70.177 165.419 73.738 160.988 78.341 L 162.998 88.919 C 167.798 81.533 172.898 74.509 178.343 67.894 L 178.342 67.894 Z M 196.939 73.847 C 192.289 79.065 187.864 84.657 183.642 90.585 C 189.206 89.288 194.949 88.6 200.73 88.455 C 200.628 87.799 200.527 87.143 200.43 86.497 L 196.94 73.847 L 196.939 73.847 Z M 203.794 106.351 C 189.99 106.233 177.127 109.885 167.838 117.721 C 168.128 118.955 168.422 120.161 168.711 121.417 C 176.325 154.545 182.478 194.629 178.575 218.663 C 172.972 253.159 147.038 303.303 122.345 343.769 C 107.455 368.167 93.209 389.054 84.168 401.913 C 94.238 401.895 104.985 404.643 115.254 409.173 C 126.338 414.063 136.827 421.06 144.484 430.087 C 145.95 431.817 147.314 433.652 148.544 435.575 C 149.904 432.228 151.12 429.222 152.904 424.872 C 158.446 411.344 165.968 393.42 174.884 374.242 C 192.719 335.89 216.611 292.39 239.537 270.262 C 264.55 246.122 314.47 220.819 357.645 202.427 C 364.061 199.694 370.298 197.123 376.321 194.692 C 371.788 180.127 362.661 168.37 351.428 156.935 C 350.806 157.285 350.196 157.635 349.568 157.987 C 314.098 177.833 270.328 196.2 242.608 193.95 C 239.223 193.676 233.77 189.965 230.58 185.51 C 218.667 168.87 209.356 135.698 203.794 106.352 L 203.794 106.351 Z M 419.808 115.479 C 417.645 115.499 415.408 115.981 413.503 117.093 L 413.075 117.345 L 412.675 117.642 C 412.675 117.642 409.805 119.766 404.775 123.284 C 419.385 137.718 427.509 155.434 432.995 173.546 L 437.309 172.089 L 437.264 172.101 C 441.244 170.864 444.449 167.195 445.544 164.191 C 446.741 160.909 446.738 158.076 446.524 155.237 C 446.099 149.561 444.38 143.702 442.027 137.96 C 439.673 132.218 436.767 126.774 432.935 122.355 C 431.02 120.145 428.892 118.085 425.672 116.625 C 424.062 115.895 421.972 115.457 419.812 115.479 L 419.808 115.479 Z M 382.46 140.581 L 368.585 148.958 C 373.968 154.772 379.055 160.993 383.415 167.858 C 384.825 159.304 384.969 150.566 382.46 140.58 L 382.46 140.581 Z M 401.865 148.036 C 403.009 160.116 401.345 171.03 398.935 181.086 L 414.652 175.756 C 411.417 165.696 407.422 156.373 401.865 148.036 Z M 83.922 419.913 C 83.478 419.913 83.044 419.925 82.622 419.943 C 75.87 420.259 73.505 421.8 72.452 424.636 L 70.24 430.601 C 70.373 434.711 71.393 438.731 73.074 442.281 C 76.774 450.099 83.164 456.436 90.806 460.884 C 98.448 465.332 107.538 467.927 116.921 466.784 C 124.099 465.91 131.304 462.519 137.104 456.664 C 137.268 451.782 135.157 446.921 130.754 441.729 C 125.476 435.506 117.006 429.619 107.989 425.642 C 99.535 421.912 90.571 419.892 83.919 419.912 L 83.922 419.913 Z" style="stroke: rgb(0, 0, 0); fill: rgb(123, 63, 0);"/>
  <g>
    <path style="stroke: rgb(0, 0, 0); fill: rgb(231, 220, 220);" d="M 405.257 191.589 L 407.793 211.607 L 400.854 230.826 L 390.045 251.512 L 376.299 271.263 L 363.22 291.814 L 344.536 310.899 L 329.456 317.304 L 310.772 317.304 L 299.828 305.161 L 287.15 287.143 L 275.272 270.594 L 265.93 261.252 L 253.385 275.265 L 264.195 291.413 L 277.674 306.627 L 294.223 323.442 L 310.105 336.921 L 335.728 338.122 L 358.416 327.045 L 376.433 304.089 L 390.485 284.379 L 405.767 260.282 L 419.475 230.798 L 424.147 210.913 L 420.41 186.223"/>
  </g>
  <path style="fill: rgb(216, 216, 216); stroke: rgb(0, 0, 0);" d="M 404.896 192.582 C 410.052 189.635 415.676 187.074 421.573 187.074"/>
</svg>