<?xml version="1.0" encoding="iso-8859-1"?>
<!-- Generator: Adobe Illustrator 19.0.0, SVG Export Plug-In . SVG Version: 6.00 Build 0)  -->
<svg version="1.1" id="Layer_1" xmlns="http://www.w3.org/2000/svg" xmlns:xlink="http://www.w3.org/1999/xlink" x="0px" y="0px"
	 viewBox="0 0 512 512" style="enable-background:new 0 0 512 512;" xml:space="preserve">
<path style="fill:#F4661E;" d="M256,266.779c32.768,0,59.284,38.589,59.284,86.232S288.768,439.242,256,439.242
	s-59.284-38.589-59.284-86.232S223.232,266.779,256,266.779z"/>
<g>
	<path style="fill:#E7ECED;" d="M342.232,142.821c20.803,0,37.726,16.923,37.726,37.726s-16.923,37.726-37.726,37.726
		s-37.726-16.923-37.726-37.726S321.428,142.821,342.232,142.821z"/>
	<path style="fill:#E7ECED;" d="M169.768,142.821c20.803,0,37.726,16.923,37.726,37.726s-16.923,37.726-37.726,37.726
		s-37.726-16.923-37.726-37.726S148.965,142.821,169.768,142.821z"/>
</g>
<path style="fill:#FFD248;" d="M256,8.084c136.893,0,247.916,111.023,247.916,247.916S392.893,503.916,256,503.916
	S8.084,392.893,8.084,256S119.107,8.084,256,8.084z M379.958,180.547c0-20.803-16.923-37.726-37.726-37.726
	s-37.726,16.923-37.726,37.726s16.923,37.726,37.726,37.726S379.958,201.351,379.958,180.547z M315.284,353.01
	c0-47.643-26.516-86.232-59.284-86.232s-59.284,38.589-59.284,86.232s26.516,86.232,59.284,86.232S315.284,400.653,315.284,353.01z
	 M207.495,180.547c0-20.803-16.923-37.726-37.726-37.726s-37.726,16.923-37.726,37.726s16.923,37.726,37.726,37.726
	S207.495,201.351,207.495,180.547z"/>
<path d="M256,512C114.841,512,0,397.159,0,256S114.841,0,256,0s256,114.841,256,256S397.159,512,256,512z M256,16.168
	C123.756,16.168,16.168,123.756,16.168,256S123.756,495.832,256,495.832S495.832,388.244,495.832,256S388.244,16.168,256,16.168z"/>
<path d="M169.768,226.358c-25.26,0-45.811-20.55-45.811-45.811s20.55-45.811,45.811-45.811s45.811,20.55,45.811,45.811
	S195.029,226.358,169.768,226.358z M169.768,150.905c-16.345,0-29.642,13.298-29.642,29.642s13.297,29.642,29.642,29.642
	s29.642-13.298,29.642-29.642S186.114,150.905,169.768,150.905z"/>
<path d="M342.232,226.358c-25.26,0-45.811-20.55-45.811-45.811s20.55-45.811,45.811-45.811s45.811,20.55,45.811,45.811
	S367.492,226.358,342.232,226.358z M342.232,150.905c-16.344,0-29.642,13.298-29.642,29.642s13.298,29.642,29.642,29.642
	s29.642-13.298,29.642-29.642S358.576,150.905,342.232,150.905z"/>
<path d="M256,447.326c-18.589,0-35.846-10.212-48.593-28.755c-12.107-17.614-18.776-40.897-18.776-65.561
	c0-24.663,6.669-47.947,18.776-65.561c12.746-18.543,30.003-28.755,48.593-28.755s35.846,10.212,48.593,28.755
	c12.107,17.614,18.776,40.897,18.776,65.561c0,24.663-6.669,47.947-18.776,65.561C291.846,437.114,274.589,447.326,256,447.326z
	 M256,274.863c-13.104,0-25.629,7.722-35.268,21.745c-10.275,14.945-15.932,34.977-15.932,56.402
	c0,21.425,5.658,41.457,15.932,56.402c9.639,14.023,22.164,21.745,35.268,21.745s25.629-7.722,35.269-21.745
	c10.273-14.945,15.931-34.977,15.931-56.402c0-21.425-5.658-41.457-15.931-56.402C281.629,282.585,269.104,274.863,256,274.863z"/>
<g>
</g>
<g>
</g>
<g>
</g>
<g>
</g>
<g>
</g>
<g>
</g>
<g>
</g>
<g>
</g>
<g>
</g>
<g>
</g>
<g>
</g>
<g>
</g>
<g>
</g>
<g>
</g>
<g>
</g>
</svg>
